<svg width="357" height="57" viewBox="0 0 357 57" xmlns="http://www.w3.org/2000/svg"><title>logo@2x</title><g fill="#FFF" fill-rule="evenodd"><path d="M75.361 35.017V22.975h7.362v1.026h-6.246v4.284h5.85v1.017h-5.85v4.689h6.516v1.026h-7.632m15.417 0l-4.491-12.042h1.206l3.879 10.557 3.906-10.557h1.197l-4.572 12.042h-1.125m15.286-12.349c3.672 0 6.222 2.653 6.222 6.325 0 3.671-2.55 6.324-6.222 6.324-3.672 0-6.222-2.653-6.222-6.324 0-3.672 2.55-6.325 6.222-6.325zm0 11.629c3.145 0 5.1-2.312 5.1-5.304 0-2.993-1.955-5.305-5.1-5.305-3.145 0-5.1 2.312-5.1 5.305 0 2.992 1.955 5.304 5.1 5.304zm11.288-11.323h1.122v11.017h5.61v1.02h-6.732V22.974m7.79 0h1.206l3.877 10.558 3.909-10.558h1.191l-4.573 12.037h-1.123l-4.487-12.037m14.33 0h1.122V35.01h-1.122V22.974zm6.97 0h1.445l7.327 10.541h.034V22.974h1.122v12.037h-1.445l-7.327-10.54h-.034v10.54h-1.122V22.974m25.704 11.254c-1.394.8-2.924 1.089-4.488 1.089-3.672 0-6.222-2.653-6.222-6.324 0-3.672 2.55-6.325 6.222-6.325 1.785 0 3.23.544 4.335 1.666l-.816.85c-.731-.883-2.21-1.496-3.519-1.496-3.145 0-5.1 2.312-5.1 5.305 0 2.992 1.955 5.304 5.1 5.304 1.292 0 2.448-.17 3.367-.715v-4.045h-2.891v-1.021h4.012v5.712m12.699-11.254h1.683l4.386 10.099 4.386-10.099h1.598v12.037h-1.122V24.403h-.034l-4.59 10.608h-.493l-4.658-10.608h-.034v10.608h-1.122V22.974m17.782 0h7.361v1.021h-6.239v4.284h5.848v1.02h-5.848v4.692h6.511v1.02h-7.633V22.974m12.478 0h3.723c6.255 0 6.51 5.135 6.51 6.019 0 .883-.255 6.018-6.51 6.018h-3.723V22.974zm1.122 11.017h2.312c3.196 0 5.677-1.547 5.677-4.998 0-3.452-2.481-4.998-5.677-4.998h-2.312v9.996zm14.178-11.017h1.122V35.01h-1.122V22.974zm10.659 0h1.155l5.067 12.037h-1.258l-1.31-3.197h-6.375l-1.359 3.197h-1.174l5.254-12.037zm.526 1.225l-2.804 6.596h5.525l-2.721-6.596zm16.95-1.225h1.445l7.326 10.541h.034V22.974h1.122v12.037h-1.444l-7.327-10.54h-.034v10.54h-1.122V22.974m15.775 0h7.361v1.021h-6.239v4.284h5.849v1.02h-5.849v4.692h6.512v1.02h-7.634V22.974m15.3 1.021h-4.114v-1.021h9.35v1.021h-4.114v11.016h-1.122V23.995m8.075-1.021h1.156l2.992 10.66h.034l3.044-10.66h1.427l3.043 10.66h.035l2.992-10.66h1.155l-3.502 12.037h-1.377l-3.043-10.71h-.034l-3.043 10.71h-1.377l-3.502-12.037m25.602-.306c3.671 0 6.222 2.653 6.222 6.325 0 3.671-2.551 6.324-6.222 6.324-3.672 0-6.222-2.653-6.222-6.324 0-3.672 2.55-6.325 6.222-6.325zm0 11.629c3.145 0 5.1-2.312 5.1-5.304 0-2.993-1.955-5.305-5.1-5.305-3.145 0-5.1 2.312-5.1 5.305 0 2.992 1.955 5.304 5.1 5.304zm11.288-11.323h3.162c.952 0 4.284 0 4.284 3.163 0 2.295-1.751 2.923-3.077 3.093l3.502 5.781h-1.275l-3.383-5.712h-2.091v5.712h-1.122V22.974zm1.122 5.305h2.38c2.363 0 2.822-1.309 2.822-2.142s-.459-2.142-2.822-2.142h-2.38v4.284zm11.509-5.305h1.122v5.305h.101l5.831-5.305h1.548l-6.087 5.508 6.427 6.529h-1.615l-6.104-6.222h-.101v6.222h-1.122V22.974M26.68 30.576l1.647-3.474c2.032 1.137 3.132 2.556 3.132 3.322l-.024.162c-.013.062-.062.262-.409.437-.29.144-.718.23-1.257.23-.813 0-1.877-.197-3.089-.677m-4.569-4.233c.062-.162.223-.3.47-.412.789-.326 2.476-.278 4.506.569l-1.66 3.502c-2.42-1.274-3.584-2.949-3.316-3.66m8.665 15.68a54.03 54.03 0 0 0 1.974-2.998c2.027.382 3.939.506 5.647.348 3.659-.324 5.947-1.972 6.281-4.518.374-2.862-1.859-6.402-5.695-9.57.203-.65.39-1.294.563-1.93 2.052 1.399 3.914 2.9 5.503 4.45 3.71 3.618 5.675 7.213 5.515 10.095-.235 4.107-4.637 5.242-7.234 5.567-.81.097-1.662.145-2.553.145-3.004 0-6.428-.547-10-1.589m-6.143-2.225a57.316 57.316 0 0 1-1.91-.875l1.344-2.836c.457.221.922.435 1.394.64a36.92 36.92 0 0 0 5.03 1.778 34.945 34.945 0 0 1-2.094 2.76 53.493 53.493 0 0 1-3.764-1.467m-8.685-4.76a36.13 36.13 0 0 1 .84-3.584c1.717 1.447 3.769 2.815 6.049 4.013L21.49 38.31a52.162 52.162 0 0 1-5.54-3.273M8.175 28.14c-3.203-3.944-4.13-7.613-2.548-10.071 1.472-2.297 4.959-3.47 9.819-3.32 2.476.079 5.207.509 8.034 1.252a55.475 55.475 0 0 0-1.162 1.774 22.237 22.237 0 0 0-2.978-.255c-3.746-.05-6.405 1.048-7.48 3.094-.643 1.21-.693 2.684-.137 4.269.68 1.972 2.235 4.045 4.407 5.999a54.585 54.585 0 0 0-1.058 3.546c-2.757-1.965-5.117-4.104-6.897-6.288m23.236-7.546l.692-1.458a53.62 53.62 0 0 1 5.38 2.885 33.6 33.6 0 0 1-.395 1.823 36.664 36.664 0 0 0-5.677-3.25m-8.186-2.666a36.42 36.42 0 0 1 1.24-1.656 51.889 51.889 0 0 1 6.38 2.299l-.696 1.467c-2.342-.982-4.7-1.698-6.924-2.11"/><path d="M24.51 56.595a27.347 27.347 0 0 1-8.894-2.679l.593-1.25a25.995 25.995 0 0 0 8.462 2.556C39.076 56.994 52.233 46.623 54 32.084l.198-3.258c0-10.565-6.19-19.842-15.27-24.09l.593-1.25C50.13 8.454 56.87 19.924 55.374 32.246 53.647 46.4 41.679 56.804 27.895 56.804c-1.118 0-2.247-.068-3.385-.21M.398 25.445C2.253 10.156 16.089-.764 31.249 1.108c2.464.304 4.813.928 7.01 1.825-.18.384-.38.803-.594 1.253A26.115 26.115 0 0 0 31.09 2.48C16.683.696 3.526 11.08 1.759 25.62.42 36.615 5.98 46.89 14.993 52.018l-.593 1.253C4.863 47.893-1.02 37.05.398 25.444"/><path d="M16.806 51.405l2.335-4.926c.982.26 2.09.137 3.292-.355 1.915-.792 3.978-2.508 5.965-4.86.798.276 1.591.528 2.378.758-1.509 2.13-3.098 4.013-4.708 5.562-2.837 2.742-5.504 4.18-7.604 4.18-.602 0-1.159-.12-1.658-.36m-3.017-9.16c.117-2.382.558-5.036 1.284-7.816.288.205.58.408.876.61a25.381 25.381 0 0 0-.404 3.722c-.108 3.49.725 5.989 2.35 7.138l-2.209 4.66c-1.407-1.534-2.092-4.468-1.897-8.315m16.703-3.739c1.703-2.481 3.278-5.388 4.566-8.517a43.484 43.484 0 0 0 2.031-6.143c.668.469 1.3.95 1.894 1.44a62.44 62.44 0 0 1-6.234 13.74 30 30 0 0 1-2.257-.52m-14.36-7.622a62.197 62.197 0 0 1 6.188-13.107c.299.045.601.096.906.153-1.73 2.451-3.345 5.355-4.676 8.527a45.587 45.587 0 0 0-1.762 4.998c-.225-.19-.443-.38-.657-.571m21.354-8.861c.404-2.147.548-4.135.417-5.875-.175-2.337-.872-4.062-1.987-5.048l2.358-4.976c1.803 1.134 2.404 3.78 2.597 5.557.346 3.206-.13 7.268-1.324 11.674a50.26 50.26 0 0 0-2.061-1.332M23.48 16a45.198 45.198 0 0 1 2.958-3.885c3.426-4.007 6.789-6.328 9.472-6.528a4.35 4.35 0 0 1 1.07.044l-2.254 4.752a4.048 4.048 0 0 0-1.388-.24c-2.621-.008-5.855 2.34-8.873 6.128-.33-.095-.658-.185-.985-.27"/><path d="M28.398 41.263a34.945 34.945 0 0 0 2.094-2.759 30 30 0 0 0 2.258.52 54.03 54.03 0 0 1-1.974 2.998c-.787-.23-1.58-.482-2.378-.759m-13.325-6.835a54.585 54.585 0 0 1 1.058-3.546c.214.192.432.382.657.571a36.13 36.13 0 0 0-.839 3.584 45.765 45.765 0 0 1-.876-.609m22.016-10.584a33.6 33.6 0 0 0 .396-1.823 50.26 50.26 0 0 1 2.061 1.332c-.173.637-.36 1.281-.563 1.932a30.555 30.555 0 0 0-1.894-1.44m-14.77-6.07a53.81 53.81 0 0 1 1.162-1.774c.327.086.656.176.985.27a36.083 36.083 0 0 0-1.24 1.657 25.746 25.746 0 0 0-.907-.153m-9.037 37.859l1.119-2.363c.398.225.804.44 1.215.645l-1.097 2.317a95.85 95.85 0 0 1-1.237-.6m1.712-3.615l.692-1.46c.286.312.602.566.947.758.057.031.115.06.173.089-.211.447-.412.868-.597 1.262a26.833 26.833 0 0 1-1.215-.65m3.594-5.73a3.749 3.749 0 0 1-.694-.39l3.596-7.587c.407.208.818.412 1.233.612l-3.582 7.557a3.88 3.88 0 0 1-.553-.192m4.25-10.82l2.59-5.465a12.71 12.71 0 0 0 1.252.574l-2.612 5.51c-.417-.2-.828-.407-1.23-.62m4.467-8.873a11.825 11.825 0 0 0-.218-.093l3.063-6.462a40.46 40.46 0 0 1 1.262.556l-3.085 6.508c-.318-.178-.659-.35-1.022-.51m3.821-7.9l-.28-.121 3.881-8.187c.436.16.833.4 1.188.714-1.152 2.43-2.446 5.158-3.81 8.038-.325-.15-.652-.3-.979-.444m5.854-13.06c.243-.513.472-.994.685-1.446.428.174.848.357 1.264.55-.204.434-.424.896-.656 1.386a3.524 3.524 0 0 0-1.293-.49m1.28-2.699L39.583.147c.458.224.767.374 1.237.598l-1.298 2.74a27.595 27.595 0 0 0-1.262-.552"/><path d="M26.254 30.4a12.71 12.71 0 0 1-.827-.398l1.66-3.502a11.825 11.825 0 0 1 1.24.602l-1.647 3.474a12.12 12.12 0 0 1-.426-.177M21.49 38.31l1.348-2.844c.402.213.813.42 1.23.62l-1.345 2.836c-.415-.2-.826-.404-1.233-.612m9.277-18.008a40.46 40.46 0 0 0-.617-.264l.696-1.467.28.121c.327.145.654.293.978.444l-.692 1.458a34.687 34.687 0 0 0-.645-.292M14.4 53.271l.594-1.253c.399.226.804.443 1.215.649l-.593 1.25a27.592 27.592 0 0 1-1.215-.646M37.665 4.186l.595-1.253c.427.174.848.36 1.262.553l-.593 1.25a26.835 26.835 0 0 0-1.264-.55m-21.032 47.13a3.793 3.793 0 0 1-.947-.758l2.208-4.66a3.88 3.88 0 0 0 1.247.581l-2.335 4.926c-.058-.029-.116-.058-.173-.089m18.094-40.932l2.253-4.752c.488.083.917.253 1.293.49l-2.358 4.976a3.713 3.713 0 0 0-1.188-.714"/></g></svg>